<svg version="1.1" id="Layer_1" xmlns="http://www.w3.org/2000/svg" xmlns:xlink="http://www.w3.org/1999/xlink" x="0px" y="0px"
	 width="100%" viewBox="0 0 1080 1080" enable-background="new 0 0 1080 1080" xml:space="preserve">
<path fill="#FFFFFF" opacity="1.000000" stroke="none" 
	d="
M602.000000,1081.000000 
	C401.356445,1081.000000 201.212860,1081.000000 1.034647,1081.000000 
	C1.034647,721.064636 1.034647,361.129272 1.034647,1.096960 
	C360.893768,1.096960 720.787598,1.096960 1080.840698,1.096960 
	C1080.840698,360.999939 1080.840698,720.999939 1080.840698,1081.000000 
	C921.462158,1081.000000 761.981079,1081.000000 602.000000,1081.000000 
M461.987213,456.474182 
	C446.776550,477.415771 431.565918,498.357361 415.684784,520.222046 
	C443.453522,520.222046 470.004913,520.222046 497.123962,520.222046 
	C497.123962,652.609802 497.123962,784.469116 497.123962,916.313049 
	C521.733215,916.313049 545.762085,916.313049 570.375366,916.313049 
	C570.375366,783.995056 570.375366,652.130127 570.375366,519.892639 
	C597.374451,519.892639 623.785706,519.892639 651.155579,519.892639 
	C611.687622,465.567749 572.730835,411.946289 533.530029,357.989075 
	C509.565155,390.987671 485.992432,423.446350 461.987213,456.474182 
M337.901398,342.385529 
	C299.421295,394.988922 279.650513,453.769867 278.663727,519.593628 
	C312.299438,519.593628 345.032867,519.593628 377.381775,519.593628 
	C383.860931,425.901672 430.798096,362.453430 518.663940,329.047150 
	C508.736237,297.760132 498.792786,266.423462 488.702179,234.623062 
	C427.190338,255.021378 377.011383,290.333313 337.901398,342.385529 
M549.782898,308.227356 
	C547.640930,315.149902 545.498901,322.072418 543.289246,329.213531 
	C585.078247,342.823883 618.909973,366.671936 644.860107,401.227570 
	C670.925659,435.936859 683.614868,475.471313 684.802002,518.108887 
	C718.215820,518.108887 750.960449,518.108887 784.276611,518.108887 
	C782.552368,448.339417 760.968811,386.612732 717.802124,332.880310 
	C679.703430,285.456482 631.419067,252.593292 572.760315,234.059677 
	C565.040588,258.927917 557.509338,283.189026 549.782898,308.227356 
M211.480072,238.978165 
	C164.890640,294.765442 140.915863,358.877350 139.592697,432.253937 
	C173.279388,432.253937 206.015259,432.253937 238.280151,432.253937 
	C244.954056,338.759552 291.353760,274.915863 379.620209,241.264008 
	C369.736542,210.183960 359.793854,178.918243 349.707977,147.202332 
	C294.913574,165.087067 249.203888,195.359589 211.480072,238.978165 
M874.907227,275.631927 
	C835.651855,202.189987 776.357849,152.779480 696.936401,126.320190 
	C686.911438,158.549454 677.165283,189.882599 667.564819,220.747101 
	C755.779419,254.376404 802.890442,317.525787 809.495117,410.377350 
	C842.283875,410.377350 875.145264,410.377350 908.281372,410.377350 
	C907.455811,362.381744 896.494263,318.075714 874.907227,275.631927 
z"/>
<path fill="#FFBD59" opacity="1.000000" stroke="none" 
	d="
M462.203430,456.189606 
	C485.992432,423.446350 509.565155,390.987671 533.530029,357.989075 
	C572.730835,411.946289 611.687622,465.567749 651.155579,519.892639 
	C623.785706,519.892639 597.374451,519.892639 570.375366,519.892639 
	C570.375366,652.130127 570.375366,783.995056 570.375366,916.313049 
	C545.762085,916.313049 521.733215,916.313049 497.123962,916.313049 
	C497.123962,784.469116 497.123962,652.609802 497.123962,520.222046 
	C470.004913,520.222046 443.453522,520.222046 415.684784,520.222046 
	C431.565918,498.357361 446.776550,477.415771 462.203430,456.189606 
z"/>
<path fill="#FBD207" opacity="1.000000" stroke="none" 
	d="
M338.097961,342.088135 
	C377.011383,290.333313 427.190338,255.021378 488.702179,234.623062 
	C498.792786,266.423462 508.736237,297.760132 518.663940,329.047150 
	C430.798096,362.453430 383.860931,425.901672 377.381775,519.593628 
	C345.032867,519.593628 312.299438,519.593628 278.663727,519.593628 
	C279.650513,453.769867 299.421295,394.988922 338.097961,342.088135 
z"/>
<path fill="#FBD207" opacity="1.000000" stroke="none" 
	d="
M549.880493,307.838745 
	C557.509338,283.189026 565.040588,258.927917 572.760315,234.059677 
	C631.419067,252.593292 679.703430,285.456482 717.802124,332.880310 
	C760.968811,386.612732 782.552368,448.339417 784.276611,518.108887 
	C750.960449,518.108887 718.215820,518.108887 684.802002,518.108887 
	C683.614868,475.471313 670.925659,435.936859 644.860107,401.227570 
	C618.909973,366.671936 585.078247,342.823883 543.289246,329.213531 
	C545.498901,322.072418 547.640930,315.149902 549.880493,307.838745 
z"/>
<path fill="#FBD207" opacity="1.000000" stroke="none" 
	d="
M211.714676,238.711273 
	C249.203888,195.359589 294.913574,165.087067 349.707977,147.202332 
	C359.793854,178.918243 369.736542,210.183960 379.620209,241.264008 
	C291.353760,274.915863 244.954056,338.759552 238.280151,432.253937 
	C206.015259,432.253937 173.279388,432.253937 139.592697,432.253937 
	C140.915863,358.877350 164.890640,294.765442 211.714676,238.711273 
z"/>
<path fill="#FBD207" opacity="1.000000" stroke="none" 
	d="
M875.045044,275.978271 
	C896.494263,318.075714 907.455811,362.381744 908.281372,410.377350 
	C875.145264,410.377350 842.283875,410.377350 809.495117,410.377350 
	C802.890442,317.525787 755.779419,254.376404 667.564819,220.747101 
	C677.165283,189.882599 686.911438,158.549454 696.936401,126.320190 
	C776.357849,152.779480 835.651855,202.189987 875.045044,275.978271 
z"/>
</svg>