<svg version="1.2" xmlns="http://www.w3.org/2000/svg" viewBox="0 0 387 387" width="387" height="387">
	<style>
		.s0 { opacity: 1;fill: #132017 } 
		.s1 { fill: #ddfae5 } 
	</style>
	<g id="Background">
		<path id="Path 0" class="s0" d="m142.92 0.39c-0.23 0.21-4.02 0.64-8.42 0.94-4.4 0.31-8.67 0.8-9.5 1.09-0.82 0.29-3.07 0.71-5 0.92-1.92 0.22-4.17 0.62-5 0.89-0.82 0.28-3.97 1.22-7 2.09-3.02 0.87-5.84 1.38-6.25 1.13-0.41-0.25-0.75 0-0.75 0.55 0 0.55-0.67 0.78-1.5 0.5-0.82-0.28-1.5-0.05-1.5 0.5 0 0.55-0.67 0.78-1.5 0.5-0.82-0.28-1.61-0.09-1.75 0.41-0.14 0.5-1.15 1.06-2.25 1.25-1.1 0.19-2.22 0.56-2.5 0.84-0.27 0.28-4.32 2.3-9 4.5-4.67 2.2-8.72 4.26-9 4.58-0.27 0.31-2.07 1.44-4 2.5-1.92 1.05-3.95 2.4-4.5 2.99-0.55 0.6-3.92 3.36-7.5 6.16-3.57 2.79-9.89 8.61-14.04 12.92-4.14 4.32-9.06 9.87-10.92 12.35-1.86 2.48-3.87 4.95-4.46 5.5-0.6 0.55-1.95 2.58-3 4.5-1.06 1.93-2.19 3.72-2.5 4-0.32 0.28-2.38 4.33-4.58 9-2.2 4.67-4.38 8.72-4.84 9-0.45 0.28-0.79 0.84-0.75 1.25 0.05 0.41-0.13 2.1-0.41 3.75-0.27 1.65-0.95 3-1.5 3-0.55 0-0.77 0.67-0.5 1.5 0.28 0.83 0.05 1.5-0.5 1.5-0.55 0-0.77 0.45-0.5 1 0.28 0.55 0.01 2.46-0.59 4.25-0.6 1.79-1.33 3.92-1.63 4.75-0.3 0.83-0.69 2.63-0.87 4-0.18 1.38-0.63 3.63-1 5-0.37 1.38-0.89 3.63-1.15 5-0.27 1.38-0.65 31.52-0.85 67-0.23 38.65 0 65.9 0.57 68 0.52 1.93 1.09 5.07 1.28 7 0.18 1.93 0.65 4.06 1.04 4.75 0.38 0.69 0.48 1.48 0.2 1.75-0.27 0.27 0.19 2.19 1.04 4.25 0.85 2.06 1.31 3.98 1.01 4.25-0.29 0.27-0.11 0.95 0.41 1.5 0.51 0.55 1.15 2.13 1.41 3.5 0.27 1.38 0.51 2.61 0.56 2.75 0.04 0.14 0.22 0.59 0.4 1 0.18 0.41 1.35 3 2.6 5.75 1.25 2.75 2.35 5.45 2.44 6 0.1 0.55 0.84 2.48 1.65 4.29 0.82 1.81 1.82 3.27 2.23 3.25 0.41-0.02 1.31 1.54 2 3.47 0.69 1.94 1.59 3.51 2 3.5 0.41 0 0.75 0.44 0.75 0.99 0 0.55 0.91 2.01 2.02 3.25 1.11 1.24 2.01 2.81 2 3.5-0.01 0.69 0.66 1.48 1.48 1.75 0.83 0.27 1.5 1.18 1.5 2 0 0.82 0.68 1.73 1.5 2 0.83 0.27 1.5 0.95 1.5 1.5 0 0.55 2.47 3.36 5.49 6.25 3.01 2.89 5.16 5.7 4.76 6.25-0.44 0.6-0.24 0.7 0.51 0.25 0.79-0.48 2.87 1.06 5.74 4.25 2.48 2.75 4.95 5 5.5 5 0.55 0 1.56 0.9 2.25 2 0.69 1.11 1.59 2.01 2 2 0.41 0 3.79 2.01 7.5 4.47 3.71 2.46 7.2 4.82 7.75 5.25 0.55 0.43 3.48 1.9 6.5 3.27 3.03 1.37 5.73 2.87 6 3.33 0.28 0.47 0.73 0.75 1 0.64 0.28-0.12 3.1 0.63 6.27 1.66 3.17 1.03 5.76 2.22 5.75 2.63-0.01 0.41 0.43 0.52 0.98 0.25 0.55-0.27 2.24 0.01 3.75 0.63 1.51 0.63 3.88 1.29 5.25 1.48 1.38 0.18 3.18 0.64 4 1 0.83 0.37 2.4 0.82 3.5 1.01 1.1 0.19 3.13 0.53 4.5 0.75 1.38 0.23 4.98 0.8 8 1.27 3.03 0.47 31.6 0.86 63.5 0.86 31.9-0.01 60.7-0.4 64-0.87 3.3-0.48 6.68-0.97 7.5-1.1 0.82-0.13 2.63-0.55 4-0.93 1.38-0.38 3.63-0.83 5-1.01 1.38-0.18 3.85-0.84 5.5-1.47 1.65-0.63 3.23-0.92 3.5-0.64 0.27 0.28 0.95 0.08 1.5-0.44 0.55-0.51 1.9-1.09 3-1.27 1.1-0.18 2.56-0.65 3.25-1.05 0.69-0.4 1.26-0.38 1.27 0.03 0 0.41 0.34 0.21 0.75-0.45 0.4-0.67 1.63-1.37 2.73-1.57 1.1-0.2 5.83-2.3 10.5-4.68 4.68-2.38 11.09-6.06 14.25-8.18 3.16-2.13 5.86-3.86 6-3.84 0.14 0.02 2.5-1.89 5.25-4.25 2.75-2.35 8.16-7.43 12.02-11.28 3.85-3.85 8.92-9.14 11.25-11.75 2.32-2.61 4.23-4.98 4.23-5.25 0-0.27 1.43-2.64 3.18-5.25 1.76-2.61 3.45-4.98 3.77-5.25 0.33-0.27 2.89-5.45 5.71-11.5 2.81-6.05 6.1-14.15 7.31-18 1.2-3.85 2.44-7.68 2.74-8.5 0.31-0.82 0.71-2.4 0.9-3.5 0.18-1.1 1.21-7.18 2.28-13.5 1.81-10.66 1.92-15.81 1.64-70.5-0.17-32.45-0.55-60.35-0.84-62-0.29-1.65-1.25-6.38-2.13-10.5-0.88-4.13-3-11.78-4.71-17-1.7-5.22-4.95-13.55-7.2-18.5-2.26-4.95-4.68-9.56-5.38-10.25-0.7-0.69-1.27-1.92-1.27-2.75 0-0.83-0.34-1.49-0.75-1.47-0.41 0.01-1.42-1.19-2.25-2.67-0.82-1.49-2.62-4.06-4-5.71-1.37-1.65-4.4-5.06-6.72-7.58-2.32-2.51-4.24-5.02-4.26-5.57-0.03-0.55-1.24-2.13-2.69-3.5-1.45-1.38-2.96-2.5-3.36-2.5-0.41 0-3.49-2.59-6.85-5.75-3.37-3.16-6.35-5.75-6.62-5.75-0.27 0-3.54-2.01-7.25-4.47-3.71-2.46-7.2-4.82-7.75-5.26-0.55-0.44-3.02-1.68-5.5-2.76-2.48-1.07-4.73-2.34-5-2.82-0.27-0.47-0.84-0.82-1.25-0.78-0.41 0.05-4.46-1.21-9-2.79-4.54-1.59-12.07-3.83-16.75-4.98-4.68-1.15-14.12-2.78-21-3.62-9.64-1.17-23.75-1.52-61.58-1.52-27 0-49.27 0.17-49.5 0.39z"/>
		<path id="Path 1" class="s1" d="m197.3 99.81c-1.21 0.3-5.26 1.4-9 2.45-3.74 1.05-9.5 3.32-12.8 5.05-3.3 1.72-8.96 6.07-12.57 9.66-3.62 3.59-8.27 9.45-10.34 13.03-2.07 3.57-5.1 10.32-6.73 15-1.63 4.68-3.69 12.55-4.59 17.5-1.1 6.11-1.62 14.78-1.62 27-0.01 12.9 0.48 20.55 1.71 27 0.95 4.95 2.66 11.93 3.81 15.5 1.14 3.57 3.93 10.1 6.18 14.5 2.87 5.59 6.22 10.11 11.13 15.01 3.9 3.89 9.69 8.4 13.02 10.15 3.3 1.74 9.37 4.21 13.5 5.49 6.47 2.02 9.57 2.34 22.5 2.33 11.49-0.01 16.52-0.44 21.5-1.85 3.57-1.01 8.41-2.69 10.75-3.73l4.25-1.9c0-29.45-0.23-38-0.5-38-0.28 0-2.41 1.64-4.75 3.65-2.34 2.01-7.63 5.25-11.75 7.2-5.93 2.81-9.07 3.65-15 3.99-5.32 0.32-9.1-0.05-13-1.27-3.03-0.94-7.3-2.94-9.5-4.44-2.2-1.5-5.57-4.97-7.5-7.7-1.93-2.74-4.7-8.57-6.17-12.95-1.47-4.39-3.22-12.7-3.89-18.48-0.69-6-0.96-15-0.63-21 0.33-5.78 1.34-14.1 2.25-18.5 0.91-4.4 2.77-10.47 4.13-13.5 1.36-3.03 3.9-7.25 5.64-9.4 1.74-2.14 4.52-4.82 6.17-5.95 1.65-1.14 5.25-2.87 8-3.86 2.9-1.04 7.73-1.79 11.5-1.78 3.57 0.01 8.75 0.61 11.5 1.35 2.75 0.73 6.8 2.25 9 3.37 2.2 1.12 6.36 3.89 9.25 6.15l5.25 4.12v-38c-8.14-3.67-13.76-5.47-17.75-6.37-4.75-1.07-11.3-1.58-19-1.49-6.46 0.07-12.74 0.38-13.95 0.67z"/>
	</g>
</svg>