<?xml version="1.0" ?><svg xmlns="http://www.w3.org/2000/svg" xmlns:xlink="http://www.w3.org/1999/xlink" version="1.1" viewBox="0 0 512 512" style="enable-background:new 0 0 512 512;" xml:space="preserve"><g id="_x30_3_Processor_x2C__Cpu_x2C__Chip_x2C__Technology_x2C__Electronic"><g><g><g><path style="fill:#FFFFFF;" d="M411.15,70.967c-103.64,0-207.047,0-310.301,0c-16.495,0-29.883,13.387-29.883,29.883      c0,17.318,0,293.859,0,310.301c0,16.495,13.387,29.883,29.883,29.883c35.584,0,271.993,0,310.301,0      c16.495,0,29.883-13.387,29.883-29.883c0-35.584,0-271.993,0-310.301C441.033,84.354,427.646,70.967,411.15,70.967z"/><path style="fill:#CDDCF9;" d="M120.98,120.981v270.039H391.02V120.981C376.017,120.981,135.983,120.981,120.98,120.981z"/><path style="fill:#FFFFFF;" d="M316.004,220.998c13.816,0,25.012,11.196,25.012,25.002s-11.196,25.002-25.012,25.002      c-13.806,0-25.002-11.196-25.002-25.002S302.198,220.998,316.004,220.998z"/><path style="fill:#FFFFFF;" d="M195.996,240.999c13.806,0,25.002,11.196,25.002,25.002s-11.196,25.002-25.002,25.002      c-13.816,0-25.012-11.196-25.012-25.002S182.18,240.999,195.996,240.999z"/></g></g><g><g><g id="XMLID_54_"><path style="fill:#487FE9;" d="M411.145,450.989H100.855c-21.969,0-39.843-17.874-39.843-39.843V100.855       c0-21.97,17.874-39.843,39.843-39.843h310.291c21.969,0,39.843,17.874,39.843,39.843v310.291       C450.989,433.115,433.115,450.989,411.145,450.989z M100.855,80.933c-10.985,0-19.922,8.937-19.922,19.922v310.291       c0,10.985,8.937,19.922,19.922,19.922h310.291c10.985,0,19.922-8.937,19.922-19.922V100.855       c0-10.985-8.937-19.922-19.922-19.922H100.855z"/></g><g id="XMLID_53_"><path style="fill:#487FE9;" d="M391.02,400.981H120.98c-5.501,0-9.961-4.46-9.961-9.961V120.98c0-5.501,4.46-9.961,9.961-9.961       H391.02c5.501,0,9.961,4.46,9.961,9.961V391.02C400.981,396.521,396.521,400.981,391.02,400.981z M130.941,381.059h250.119       V130.941H130.941V381.059z"/></g><g id="XMLID_52_"><path style="fill:#487FE9;" d="M501.037,190.949h-60.009c-5.501,0-9.961-4.46-9.961-9.961c0-5.501,4.46-9.961,9.961-9.961       h60.009c5.501,0,9.961,4.46,9.961,9.961C510.998,186.49,506.538,190.949,501.037,190.949z"/></g><g id="XMLID_51_"><path style="fill:#487FE9;" d="M501.037,240.957h-60.009c-5.501,0-9.961-4.46-9.961-9.961c0-5.501,4.46-9.961,9.961-9.961       h60.009c5.501,0,9.961,4.46,9.961,9.961C510.998,236.498,506.538,240.957,501.037,240.957z"/></g><g id="XMLID_50_"><path style="fill:#487FE9;" d="M501.037,290.964h-60.009c-5.501,0-9.961-4.46-9.961-9.961s4.46-9.961,9.961-9.961h60.009       c5.501,0,9.961,4.46,9.961,9.961S506.538,290.964,501.037,290.964z"/></g><g id="XMLID_49_"><path style="fill:#487FE9;" d="M501.037,340.972h-60.009c-5.501,0-9.961-4.46-9.961-9.961s4.46-9.961,9.961-9.961h60.009       c5.501,0,9.961,4.46,9.961,9.961S506.538,340.972,501.037,340.972z"/></g><g id="XMLID_48_"><path style="fill:#487FE9;" d="M70.972,190.949H10.963c-5.501,0-9.961-4.46-9.961-9.961c0-5.501,4.46-9.961,9.961-9.961h60.009       c5.501,0,9.961,4.46,9.961,9.961C80.933,186.49,76.473,190.949,70.972,190.949z"/></g><g id="XMLID_47_"><path style="fill:#487FE9;" d="M70.972,240.957H10.963c-5.501,0-9.961-4.46-9.961-9.961c0-5.501,4.46-9.961,9.961-9.961h60.009       c5.501,0,9.961,4.46,9.961,9.961C80.933,236.498,76.473,240.957,70.972,240.957z"/></g><g id="XMLID_46_"><path style="fill:#487FE9;" d="M70.972,290.964H10.963c-5.501,0-9.961-4.46-9.961-9.961s4.46-9.961,9.961-9.961h60.009       c5.501,0,9.961,4.46,9.961,9.961S76.473,290.964,70.972,290.964z"/></g><g id="XMLID_45_"><path style="fill:#487FE9;" d="M70.972,340.972H10.963c-5.501,0-9.961-4.46-9.961-9.961s4.46-9.961,9.961-9.961h60.009       c5.501,0,9.961,4.46,9.961,9.961S76.473,340.972,70.972,340.972z"/></g><g id="XMLID_44_"><path style="fill:#487FE9;" d="M331.011,510.998c-5.501,0-9.961-4.46-9.961-9.961v-60.009c0-5.501,4.46-9.961,9.961-9.961       s9.961,4.46,9.961,9.961v60.009C340.972,506.538,336.512,510.998,331.011,510.998z"/></g><g id="XMLID_43_"><path style="fill:#487FE9;" d="M281.003,510.998c-5.501,0-9.961-4.46-9.961-9.961v-60.009c0-5.501,4.46-9.961,9.961-9.961       s9.961,4.46,9.961,9.961v60.009C290.964,506.538,286.504,510.998,281.003,510.998z"/></g><g id="XMLID_42_"><path style="fill:#487FE9;" d="M230.997,510.998c-5.501,0-9.961-4.46-9.961-9.961v-60.009c0-5.501,4.46-9.961,9.961-9.961       c5.501,0,9.961,4.46,9.961,9.961v60.009C240.958,506.538,236.498,510.998,230.997,510.998z"/></g><g id="XMLID_41_"><path style="fill:#487FE9;" d="M180.989,510.998c-5.501,0-9.961-4.46-9.961-9.961v-60.009c0-5.501,4.46-9.961,9.961-9.961       c5.501,0,9.961,4.46,9.961,9.961v60.009C190.95,506.538,186.49,510.998,180.989,510.998z"/></g><g id="XMLID_40_"><path style="fill:#487FE9;" d="M331.011,80.933c-5.501,0-9.961-4.46-9.961-9.961V10.963c0-5.501,4.46-9.961,9.961-9.961       s9.961,4.46,9.961,9.961v60.009C340.972,76.473,336.512,80.933,331.011,80.933z"/></g><g id="XMLID_39_"><path style="fill:#487FE9;" d="M281.003,80.933c-5.501,0-9.961-4.46-9.961-9.961V10.963c0-5.501,4.46-9.961,9.961-9.961       s9.961,4.46,9.961,9.961v60.009C290.964,76.473,286.504,80.933,281.003,80.933z"/></g><g id="XMLID_38_"><path style="fill:#487FE9;" d="M230.997,80.933c-5.501,0-9.961-4.46-9.961-9.961V10.963c0-5.501,4.46-9.961,9.961-9.961       c5.501,0,9.961,4.46,9.961,9.961v60.009C240.958,76.473,236.498,80.933,230.997,80.933z"/></g><g id="XMLID_37_"><path style="fill:#487FE9;" d="M180.989,80.933c-5.501,0-9.961-4.46-9.961-9.961V10.963c0-5.501,4.46-9.961,9.961-9.961       c5.501,0,9.961,4.46,9.961,9.961v60.009C190.95,76.473,186.49,80.933,180.989,80.933z"/></g><g id="XMLID_36_"><path style="fill:#487FE9;" d="M195.991,250.958c-5.501,0-9.961-4.459-9.961-9.96v-60.009c0-5.501,4.46-9.961,9.961-9.961       h50.048V120.98c0-5.501,4.46-9.961,9.961-9.961s9.961,4.46,9.961,9.961v60.009c0,5.501-4.46,9.961-9.961,9.961h-50.048v50.048       C205.952,246.499,201.492,250.958,195.991,250.958z"/></g><g id="XMLID_35_"><path style="fill:#487FE9;" d="M195.991,300.966c-19.28,0-34.964-15.684-34.964-34.964s15.684-34.965,34.964-34.965       s34.965,15.685,34.965,34.965S215.27,300.966,195.991,300.966z M195.991,250.958c-8.295,0-15.042,6.749-15.042,15.043       s6.748,15.042,15.042,15.042s15.043-6.748,15.043-15.042S204.285,250.958,195.991,250.958z"/></g><g id="XMLID_34_"><path style="fill:#487FE9;" d="M256,395.98c-5.501,0-9.961-4.46-9.961-9.961v-55.008c0-5.501,4.46-9.961,9.961-9.961h50.048       v-50.048c0-5.501,4.46-9.961,9.961-9.961c5.501,0,9.961,4.46,9.961,9.961v60.008c0,5.501-4.46,9.961-9.961,9.961h-50.048       v45.048C265.961,391.52,261.501,395.98,256,395.98z"/></g><g id="XMLID_33_"><path style="fill:#487FE9;" d="M316.009,280.963c-19.28,0-34.965-15.685-34.965-34.965s15.685-34.965,34.965-34.965       c19.28,0,34.964,15.685,34.964,34.965S335.289,280.963,316.009,280.963z M316.009,230.955c-8.295,0-15.043,6.748-15.043,15.043       c0,8.295,6.749,15.043,15.043,15.043s15.042-6.749,15.042-15.043C331.052,237.704,324.304,230.955,316.009,230.955z"/></g></g></g></g></g><g id="Layer_1"/></svg>