<svg version="1.2" xmlns="http://www.w3.org/2000/svg" viewBox="0 0 387 387" width="387" height="387">
	<style>
		.s0 { fill: #26131a } 
		.s1 { fill: #ffdce5 } 
	</style>
	<g id="Background">
		<path id="Path 0" class="s0" d="m131.5 1.1c-4.95 0.51-13.72 2.05-19.5 3.43-5.78 1.39-15.22 4.44-21 6.8-5.78 2.35-13.65 6.11-17.5 8.35-3.85 2.25-10.6 6.78-15 10.08-4.4 3.3-12.28 10.44-17.5 15.87-5.23 5.43-12.22 13.92-15.53 18.87-3.32 4.95-7.9 12.83-10.18 17.5-2.28 4.67-5.5 12.55-7.15 17.5-1.65 4.95-3.7 12.49-4.57 16.75-0.86 4.26-2.06 13.49-2.66 20.5-0.69 8.08-0.93 32.35-0.65 66.25 0.37 45.43 0.7 54.93 2.19 63 0.96 5.23 3.11 13.77 4.78 19 1.66 5.23 4.67 13.1 6.69 17.5 2.02 4.4 6.3 12.05 9.51 17 3.21 4.95 8.67 12.38 12.13 16.5 3.47 4.13 9.15 10.02 12.62 13.1 3.48 3.09 9.7 8.04 13.82 11.02 4.12 2.97 12 7.74 17.5 10.58 5.5 2.85 14.72 6.73 20.5 8.62 5.78 1.89 15 4.28 20.5 5.31 9.1 1.7 15.71 1.87 73.5 1.87 56.85 0 64.49-0.19 73-1.79 5.23-0.99 14.23-3.38 20-5.31 5.77-1.93 14.55-5.56 19.5-8.06 4.95-2.5 12.82-7.17 17.5-10.38 4.68-3.21 12.06-9.13 16.4-13.15 4.35-4.02 10.79-10.91 14.31-15.31 3.53-4.4 8.59-11.6 11.26-16 2.67-4.4 6.43-11.6 8.35-16 1.91-4.4 4.61-11.6 6-16 1.38-4.4 3.33-12.05 4.34-17 1.68-8.19 1.84-14.87 1.84-74.5 0-63.83-0.06-65.75-2.2-75.5-1.22-5.5-3.63-14.05-5.37-19-1.74-4.95-4.97-12.6-7.17-17-2.21-4.4-6.04-11.15-8.52-15-2.48-3.85-7.31-10.37-10.73-14.5-3.43-4.12-9.33-10.25-13.12-13.62-3.79-3.37-10.27-8.55-14.39-11.51-4.12-2.96-11.55-7.49-16.5-10.06-4.95-2.58-14.4-6.47-21-8.67-6.6-2.19-16.27-4.77-21.5-5.74-8.25-1.52-17.14-1.78-67.5-1.98-31.9-0.12-62.05 0.18-67 0.68z"/>
		<path id="Path 1" class="s1" d="m137 177.25c0 41.39 0.33 80.76 0.75 87.51l0.75 12.25c32.55-0.02 46.05-0.49 51-1.05 4.95-0.56 11.93-1.72 15.5-2.58 3.57-0.86 10.32-3.39 15-5.62 6.28-2.99 10.07-5.64 14.5-10.16 3.37-3.43 7.6-9.18 9.65-13.11 2.01-3.84 4.61-10.14 5.78-13.99 1.17-3.85 2.79-12.06 3.6-18.25 0.81-6.19 1.47-16.76 1.48-23.5 0-6.74-0.49-16.07-1.09-20.75-0.6-4.68-1.99-12.1-3.08-16.5-1.09-4.4-3.5-11.15-5.36-15-1.86-3.85-5.09-9.06-7.18-11.58-2.09-2.52-5.83-6.19-8.3-8.17-2.47-1.97-7.43-4.92-11-6.54-3.57-1.63-8.97-3.67-12-4.53-3.03-0.87-9.32-2.05-14-2.63-4.68-0.58-19.19-1.05-32.25-1.05h-23.75z"/>
		<path id="Path 2" class="s0" d="m172.13 189.62l-0.15 56.88c15.13-1.12 21.55-2.12 24.02-2.94 2.47-0.82 6.7-3.42 9.39-5.78 2.69-2.35 5.91-6.31 7.15-8.78 1.25-2.48 3.05-7.65 3.99-11.5 1.13-4.59 1.88-12.85 2.2-24 0.37-12.92 0.1-19.22-1.12-26.25-0.89-5.09-2.59-11.84-3.79-15-1.39-3.66-3.84-7.4-6.75-10.31-2.78-2.77-6.53-5.27-9.57-6.36-2.91-1.04-9.22-2.01-15.11-2.31l-10.12-0.53z"/>
	</g>
</svg>