<?xml version="1.0" ?><svg enable-background="new 0 0 512 512" id="Layer_1" version="1.1" viewBox="0 0 512 512" xml:space="preserve" xmlns="http://www.w3.org/2000/svg" xmlns:xlink="http://www.w3.org/1999/xlink"><g><g><linearGradient gradientUnits="userSpaceOnUse" id="SVGID_1_" x1="-0.0000027" x2="512" y1="256" y2="256"><stop offset="0" style="stop-color:#B49A85"/><stop offset="0.0650802" style="stop-color:#B0957F"/><stop offset="0.2856463" style="stop-color:#A88A71"/><stop offset="0.5538635" style="stop-color:#A38369"/><stop offset="1" style="stop-color:#A18166"/></linearGradient><circle cx="256" cy="256" fill="url(#SVGID_1_)" r="256"/><linearGradient gradientUnits="userSpaceOnUse" id="SVGID_2_" x1="42.6666641" x2="469.3333435" y1="256.0005188" y2="256.0005188"><stop offset="0" style="stop-color:#A18166"/><stop offset="0.4461364" style="stop-color:#A38369"/><stop offset="0.7143537" style="stop-color:#A88A71"/><stop offset="0.9349198" style="stop-color:#B0957F"/><stop offset="1" style="stop-color:#B49A85"/></linearGradient><path d="M256,469.3338623c-117.6315002,0-213.3333435-95.7018738-213.3333435-213.3333435    c0-117.6309204,95.7018356-213.333313,213.3333435-213.333313c117.6357117,0,213.3333435,95.7024002,213.3333435,213.333313    C469.3333435,373.6319885,373.6357117,469.3338623,256,469.3338623z" fill="url(#SVGID_2_)"/></g><g><polygon opacity="0.3" points="259.690094,271.5392151 315.1343689,271.5392151 259.690094,216.095459   "/><polygon opacity="0.3" points="249.6901093,211.0938721 144,211.0938721 144,380.7701416 320.135437,380.7701416     320.135437,281.5392151 249.6901093,281.5392151   "/><polygon opacity="0.3" points="323.5546265,152.2309265 323.5546265,207.6746674 378.9983826,207.6746674   "/><polygon opacity="0.3" points="313.5546265,217.6746674 313.5546265,147.2298584 207.864502,147.2298584 207.864502,201.095459     258.8330383,201.095459 330.1348877,272.3962708 330.1348877,316.9061279 384,316.9061279 384,217.6746674   "/></g><g><polygon fill="#FFFFFF" points="251.6901093,263.5392151 307.1343689,263.5392151 251.6901093,208.095459   "/><polygon fill="#FFFFFF" points="241.6901093,203.0938721 136,203.0938721 136,372.7701416 312.135437,372.7701416     312.135437,273.5392151 241.6901093,273.5392151   "/><polygon fill="#FFFFFF" points="315.5546265,144.2309265 315.5546265,199.6746674 370.9983826,199.6746674   "/><polygon fill="#FFFFFF" points="305.5546265,209.6746674 305.5546265,139.2298584 199.864502,139.2298584 199.864502,193.095459     250.8330383,193.095459 322.1348877,264.3962708 322.1348877,308.9061279 376,308.9061279 376,209.6746674   "/></g></g></svg>