<svg id="icon" xmlns="http://www.w3.org/2000/svg" viewBox="0 0 512 512"><defs><style>.cls-1{fill:#ffe2d4;}.cls-2{fill:#efb9ab;}.cls-3{fill:#fff9f8;}.cls-4{fill:#4d4d4d;}</style></defs><title>hand</title><path class="cls-1" d="M419.18,173.51h0a14.11,14.11,0,0,0-17.06,10.32c-9.58,38.85-31.23,88.07-31.23,88.07,6.12-64,6.17-138.95,5.84-171.43a16.58,16.58,0,0,0-33.15-.22C342.44,146.1,333,225.24,330.91,242a17,17,0,0,1-3.07,8.06c-2.78,3.77-5.76,4.44-8.27,4a7.41,7.41,0,0,1-5.82-7.38V178.75c-.43-34.37-2.34-78.85-3.48-103a18.34,18.34,0,0,0-18.33-17.48h0A18.35,18.35,0,0,0,273.59,76.2l-3.31,142.91a95.29,95.29,0,0,1-3.73,23,8.85,8.85,0,0,1-16.63.82c0-.09-.08-.18-.11-.27a8.94,8.94,0,0,1-.63-3.35c.24-33.79-6.43-93-10.09-122.95a19.58,19.58,0,0,0-39,3l5.62,180.45c-.35,21.41-4.67,35.08-8.36,42.92a11.51,11.51,0,0,1-14.65,5.66c-21.55-9.12-37.06-31.71-45-45.64a48.71,48.71,0,0,0-30.88-23.39,83.51,83.51,0,0,0-22.71-2.17,16.41,16.41,0,0,0-10.85,28C96.48,328,105.71,357.6,105.71,357.6c9.32,33.07,38.55,55.31,52.58,64.36a109,109,0,0,1,24.07,20.79c13.75,16.16,19.17,30.92,21.31,40.06a233.57,233.57,0,0,0,155.5-18.17c1.43-21.75,4.89-48.28,13-69.78A606.12,606.12,0,0,0,397,308.54c10.8-32.87,25.86-91.31,32.56-117.85A14.12,14.12,0,0,0,419.18,173.51Z"/><path class="cls-2" d="M171.72,402.65c-15.6-10.91-42.56-32.12-47.64-51.42-4.77-18.12-16.25-33.26-23.51-41.47a11.93,11.93,0,0,0-14.17-2.83l-7.85,3.83a143.19,143.19,0,0,1,27.16,46.84c9.32,33.07,38.55,55.31,52.58,64.36a118.46,118.46,0,0,1,11.41,8.37l5.68-8.72A13.88,13.88,0,0,0,171.72,402.65Z"/><path class="cls-2" d="M250.37,270C288.3,268.2,287,224.56,287,224.56l2.76-117.44A17.25,17.25,0,0,0,273.5,89.49l-.21,0-3,129.64a95.29,95.29,0,0,1-3.73,23A8.88,8.88,0,0,1,252,246Z"/><path class="cls-2" d="M346.19,118.05l-3.3-1c-2.51,46.25-10.15,110.09-12,125a17,17,0,0,1-3.07,8.06c-2.06,2.79-4.23,3.88-6.23,4.07v7.63c24.08,3.11,26.81-31.06,26.81-31.06l9.42-95.2A16.55,16.55,0,0,0,346.19,118.05Z"/><path class="cls-2" d="M372.13,394.86A606.12,606.12,0,0,0,397,308.54l.91-2.82h0a23.16,23.16,0,0,0-22.18,16.46c-7.14,23.67-18.13,56.89-28.35,74.76a25.66,25.66,0,0,0-2.91,8.11l-3.92,21.23a30.11,30.11,0,0,1-18.47,22.51c-11.41,4.54-28,10-46.24,12.24a21.8,21.8,0,0,0-19.16,21.19l-.13,6.49a231.62,231.62,0,0,0,102.65-24.07C360.6,442.89,364.06,416.36,372.13,394.86Z"/><path class="cls-2" d="M399.44,193.93h0c-8.22,29-21.22,60.75-26.35,72.88l-2.19,23.47c8.14.4,14.09-11.8,14.09-11.8l22.63-66.72A14.26,14.26,0,0,0,399.44,193.93Z"/><path class="cls-3" d="M219.78,209l-5.35-82.86a14.08,14.08,0,0,1,2.06-8.06,6.73,6.73,0,0,0-.72-8.3L209,102.37a19.56,19.56,0,0,0-8.91,17l3.16,101.54h5.31A11.26,11.26,0,0,0,219.78,209Z"/><path class="cls-3" d="M231.11,304.38a7.3,7.3,0,0,1-2.26-7.95,8.05,8.05,0,0,1,8.23-6c5.18,0,5.84,5.74,5.29,11.21-.48,4.86-5,7.49-8.45,4.89Z"/><path class="cls-3" d="M292.46,295.24l1.12-.83a4.25,4.25,0,0,1,6.76,2.84,41.19,41.19,0,0,1-.08,12,4.24,4.24,0,0,1-6,3l-.84-.39a6.39,6.39,0,0,1-3.68-5.94l.14-5.8A6.4,6.4,0,0,1,292.46,295.24Z"/><path class="cls-4" d="M382.55,100.41a22.4,22.4,0,0,0-44.79-.3c-.93,37.27-7.32,96.18-11.05,128a5.83,5.83,0,0,0,11.58,1.35c3.75-32,10.18-91.31,11.12-129a10.75,10.75,0,0,1,21.49.13c.31,29.87.35,106.3-5.82,170.81a.27.27,0,0,1,0,.09s0,.05,0,.08a117.66,117.66,0,0,0,0,13.92,5.83,5.83,0,0,0,5.81,5.43h.39a5.82,5.82,0,0,0,5.43-6.2,105.81,105.81,0,0,1,0-12.3C382.91,207.31,382.86,130.45,382.55,100.41Z"/><path class="cls-4" d="M391.43,306.72a5.68,5.68,0,0,0-.18.71,604.82,604.82,0,0,1-24.58,85.38c-6.66,17.75-11.05,40.65-13.07,68.06-5.88,2.81-11.91,5.39-18,7.66a5.83,5.83,0,0,0,4.09,10.92,239.22,239.22,0,0,0,22.06-9.57,5.81,5.81,0,0,0,3.14-6.14,6,6,0,0,0,.25-1.29c1.92-26.62,6.1-48.68,12.42-65.55a620.14,620.14,0,0,0,25-86.88c11-33.53,26.42-93.58,32.56-117.9a20,20,0,1,0-38.72-9.68,416.08,416.08,0,0,1-13.22,42.69,5.83,5.83,0,1,0,10.95,4,425.33,425.33,0,0,0,13.58-43.89A8.31,8.31,0,0,1,423,183a8.18,8.18,0,0,1,.93,6.3C417.75,213.55,402.31,273.61,391.43,306.72Z"/><path class="cls-4" d="M257.16,289.16a5.82,5.82,0,0,0-5,6.55,35.19,35.19,0,0,1-1.7,13.8,5.82,5.82,0,1,0,11.06,3.65,46.27,46.27,0,0,0,2.19-19A5.83,5.83,0,0,0,257.16,289.16Z"/><path class="cls-4" d="M308.09,297.6a15.2,15.2,0,0,0-.27,3.42c-.07,3.31-.21,9.47-1.89,14.51A5.83,5.83,0,1,0,317,319.22c2.24-6.71,2.4-14.3,2.48-18,0-.6,0-1.08,0-1.4a5.83,5.83,0,0,0-11.42-2.27Z"/><path class="cls-4" d="M364.69,332.7a5.83,5.83,0,0,0,5.44-3.74,49.64,49.64,0,0,0,3.27-16.19,5.83,5.83,0,0,0-11.66,0,38,38,0,0,1-2.49,12,5.83,5.83,0,0,0,3.35,7.53A5.72,5.72,0,0,0,364.69,332.7Z"/><path class="cls-4" d="M256,494.55A241,241,0,0,0,297.46,491a5.83,5.83,0,1,0-2-11.48A229.74,229.74,0,0,1,256,482.89a226.38,226.38,0,0,1-47.6-5c-2.77-9.71-8.74-23.76-21.6-38.88a115,115,0,0,0-25.35-21.91c-12.1-7.8-41.21-29.38-50.13-61,0,0,0-.1,0-.15-.4-1.27-9.94-31.32-33.91-54.82a10.57,10.57,0,0,1,7-18,78.31,78.31,0,0,1,21.11,2,43,43,0,0,1,27.18,20.61c7.78,13.72,24.32,38.21,47.76,48.13a17.32,17.32,0,0,0,22.2-8.55c3.86-8.2,8.53-22.73,8.9-45.3a1.31,1.31,0,0,0,0-.28L205.9,119.21a13.76,13.76,0,0,1,27.4-2.11c3.86,31.43,10.29,89.1,10.06,122.21a1,1,0,0,0,0,.24s0,0,0,.07l0,1v.13l1.14,24a5.83,5.83,0,0,0,5.82,5.55h.28a5.82,5.82,0,0,0,5.54-6.09l-1.07-22.7a5.57,5.57,0,0,0-.06-1.52c0-.12,0-.25,0-.37l0-.41c.21-33.78-6.26-91.87-10.14-123.52a25.41,25.41,0,0,0-50.62,3.89l5.62,180.32c-.35,20.42-4.44,33.24-7.8,40.39a5.71,5.71,0,0,1-7.11,2.78c-20.26-8.58-35.11-30.72-42.16-43.15a54.72,54.72,0,0,0-34.59-26.19,89.88,89.88,0,0,0-24.3-2.32,22.23,22.23,0,0,0-14.7,38c21.34,20.93,30.46,48.47,30.92,49.9,9.67,34.17,38.6,57,55,67.59a102.87,102.87,0,0,1,22.79,19.67,97.73,97.73,0,0,1,17.08,28C99.42,447.85,29.11,360,29.11,256a225.83,225.83,0,0,1,38.6-126.65,5.82,5.82,0,1,0-9.66-6.51A237.35,237.35,0,0,0,17.45,256C17.45,387.54,124.46,494.55,256,494.55Z"/><path class="cls-4" d="M256,17.45a238.85,238.85,0,0,0-114.16,29,5.83,5.83,0,1,0,5.59,10.23A227.09,227.09,0,0,1,256,29.11c125.11,0,226.89,101.78,226.89,226.89a227.2,227.2,0,0,1-52.34,145,5.83,5.83,0,0,0,9,7.45,238.84,238.84,0,0,0,55-152.42C494.55,124.46,387.54,17.45,256,17.45Z"/><path class="cls-4" d="M97.48,77.73l-2.25,2a5.83,5.83,0,0,0,7.85,8.61l2.15-1.94a5.83,5.83,0,0,0-7.75-8.71Z"/><path class="cls-4" d="M319.58,243.47h0V178.68c-.43-34.6-2.37-79.51-3.49-103.2a24.18,24.18,0,0,0-48.32.58l-3.31,142.83a108.28,108.28,0,0,1-3.57,21.87,5.83,5.83,0,0,0,11.33,2.75,119.24,119.24,0,0,0,3.88-24.08c0-.06,0-.12,0-.18l3.31-142.92a12.52,12.52,0,0,1,25-.3c1.11,23.61,3.05,68.38,3.48,102.72v68.67c-.29,4.14,1.85,12,12.11,14.89a6.05,6.05,0,0,0,1.57.21,5.83,5.83,0,0,0,1.56-11.44c-3-.85-3.55-2.19-3.6-2.85a2,2,0,0,0,0-.56Z"/></svg>