<?xml version="1.0" ?><!DOCTYPE svg  PUBLIC '-//W3C//DTD SVG 1.1//EN'  'http://www.w3.org/Graphics/SVG/1.1/DTD/svg11.dtd'><svg xmlns="http://www.w3.org/2000/svg" xmlns:xlink="http://www.w3.org/1999/xlink" version="1.1" id="Layer_1" width="512px" height="512px" viewBox="0 0 512 512" enable-background="new 0 0 512 512" xml:space="preserve"><path fill="#F9BC15" d="M370,12.43l-95.89,95.9H350v121.24c0,15.54-11.52,37.92-24.18,46.95l-48.87,34.86  c-7.77,5.54-14.89,13.02-20.95,21.6c-6.06-8.58-13.18-16.06-20.95-21.6l-48.87-34.86c-12.66-9.03-24.18-31.41-24.18-46.95V108.33  h75.89L142,12.43l-95.89,95.9H122v121.24c0,28.68,17.6,62.86,40.95,79.51l48.87,34.86c12.66,9.03,24.18,31.4,24.18,46.95v108.68h40  V390.89c0-15.55,11.52-37.92,24.18-46.95l48.87-34.86C372.4,292.43,390,258.25,390,229.57V108.33h75.89L370,12.43z"/></svg>